<?xml version="1.0" encoding="utf-8"?>
<!-- Generator: Adobe Illustrator 27.7.0, SVG Export Plug-In . SVG Version: 6.00 Build 0)  -->
<svg version="1.1" id="Layer_1" xmlns="http://www.w3.org/2000/svg" xmlns:xlink="http://www.w3.org/1999/xlink" x="0px" y="0px"
	 width="372.5px" height="194px" viewBox="0 0 372.5 194" style="enable-background:new 0 0 372.5 194;" xml:space="preserve">
<style type="text/css">
	.st0{fill:#F5F6F6;}
	.st1{fill:#95DEF4;}
	.st2{opacity:0.53;fill:#959696;enable-background:new    ;}
	.st3{opacity:0.22;fill:#B1B2B2;enable-background:new    ;}
	.st4{opacity:0.7;enable-background:new    ;}
	.st5{fill:#00A6CC;}
	.st6{opacity:0.7;fill:#37C9F7;enable-background:new    ;}
</style>
<g>
	<path class="st0" d="M29.4,80.7L18.2,91.9c-1.9,1.9-4.9,1.9-6.8,0s-1.9-4.9,0-6.8l8-8l-8-8c-1.9-1.9-1.9-4.9,0-6.8
		c1.9-1.9,4.9-1.9,6.8,0l11.2,11.2c0.9,0.9,1.5,2.2,1.3,3.4C30.9,78.5,30.4,79.8,29.4,80.7z"/>
</g>
<path class="st1" d="M29.4,80.7L18.2,91.9c-1.9,1.9-4.9,1.9-6.8,0s-1.9-4.9,0-6.8l8-8l-8-8c-1.9-1.9-1.9-4.9,0-6.8
	c1.9-1.9,4.9-1.9,6.8,0l11.2,11.2c0.9,0.9,1.5,2.2,1.3,3.4C30.9,78.5,30.4,79.8,29.4,80.7z"/>
<path class="st2" d="M52.5,80.7L41.3,91.9c-1.9,1.9-4.9,1.9-6.8,0c-1.9-1.9-1.9-4.9,0-6.8l8-8l-8-8c-1.9-1.9-1.9-4.9,0-6.8
	c1.9-1.9,4.9-1.9,6.8,0l11.2,11.2c0.9,0.9,1.5,2.2,1.3,3.4C54,78.5,53.4,79.8,52.5,80.7z"/>
<path class="st3" d="M75.7,80.7L64.5,91.9c-1.9,1.9-4.9,1.9-6.8,0c-1.9-1.9-1.9-4.9,0-6.8l8-8l-8-8c-1.9-1.9-1.9-4.9,0-6.8
	c1.9-1.9,4.9-1.9,6.8,0l11.2,11.2c0.9,0.9,1.5,2.2,1.3,3.4C77,78.5,76.6,79.8,75.7,80.7z"/>
<g class="st4">
	<g>
		<g>
			<path class="st5" d="M233.2,93.7c-1.3,0-2.4-0.7-2.8-2.1c-0.1-0.3-1-0.9-4.7-1.6c-0.4-0.1-0.7-0.1-1.2-0.3
				c-1-0.3-1.9-0.4-2.7-0.6c-4.1-0.7-7.4-1.3-10.9-6.8c-1.3-1.9-1.3-4.7-1.5-7.1c0-0.7,0-1.5-0.1-2.1c-0.1-1-0.1-1.9-0.1-2.7
				c0-1.3,0-1.6-1.2-3.1c-2.8-3.4-3.1-7.2-1.2-10.6c0.9-1.3,1.9-2.5,2.9-3.5c0.9-1,1.8-1.9,2.5-2.9c0-0.1,0-0.3-0.1-0.3
				c-0.7-2.4-1.3-5.5,0.7-11.3c0-0.1-0.1-0.4-0.3-0.7l-2.8-6l6.3,1.9c0.3,0.1,0.6,0.1,0.9,0.1c1.3,0.1,2.5,0.1,3.8,0.1
				c2.9,0,6.3,0,10,2.1c0.6,0.3,1.2,0.9,1.6,1.3c0.1,0.1,0.4,0.3,0.6,0.4c0.1,0,0.6-0.1,0.7-0.3c0.6-0.1,1.3-0.4,2.2-0.4
				c1.2,0,4.6-0.3,6.5,2.5c1.5,2.1,1.2,4.3,1,5.9c0,0.6-0.1,1.2-0.1,1.5v0.6c0,0.3,0,0.6,0.1,0.9c2.8-0.9,4.6-0.1,7.4,1.3L251,50
				c3.2,1.6,4.9,5.2,4,9.4c-0.3,1.5-1,2.8-1.8,4.1c-0.4,0.7-1,1.9-1.2,2.7c0.3,0.1,0.4,0.4,0.7,0.6c4,3.2,8,6.8,8.4,10.6
				c0.3,2.5-0.4,5.7-1,8c-0.4,1.6-2.1,2.5-3.7,2.1s-2.5-2.1-2.1-3.7c0.7-2.5,1-4.7,0.9-5.7c-0.1-0.7-1.2-2.5-6.2-6.6
				c-1.6-1.3-2.2-1.9-2.7-2.8c-1-2.8,0.4-5.6,1.6-7.8c0.4-0.9,1-1.9,1.2-2.4c0.1-0.9,0.3-2.4-0.9-2.9l-0.3-0.1
				c-2.7-1.3-2.7-1.3-4.3-0.4l-1.2,0.6l-1.3-0.6c-3.5-1.6-3.7-4.7-3.8-6.6v-0.4c-0.1-1,0-1.9,0.1-2.7c0-0.6,0.1-1.5,0.1-1.6
				c0,0-0.3,0-0.9,0c-0.1,0-0.3,0-0.6,0c-0.1,0-0.6,0.1-0.9,0.1c-1,0.3-2.5,0.7-4.1,0.3c-1.2-0.3-2.1-1.2-2.8-1.9
				c-0.3-0.3-0.4-0.4-0.7-0.6c-2.2-1.3-4.3-1.3-6.9-1.3c-0.6,0-1.3,0-2.1,0c0,0.1-0.1,0.4-0.1,0.6c-1.6,4.4-1,6.2-0.7,7.5
				c0.3,1,0.9,2.8-0.1,4.6c-1,1.9-2.4,3.2-3.5,4.6c-0.9,0.9-1.6,1.6-2.1,2.5c-0.6,0.9-0.9,1.9,0.7,3.8c2.2,2.8,2.5,4.4,2.5,6.6
				c0,0.6,0,1.2,0.1,2.1c0.1,0.7,0.1,1.6,0.1,2.7c0,1,0,3.4,0.4,3.8c2.2,3.4,3.5,3.5,7.1,4.3c0.9,0.1,1.9,0.3,2.9,0.6
				c0.3,0,0.7,0.1,1,0.1c3.1,0.6,7.8,1.6,9.1,5.6c0.4,1.6-0.4,3.2-1.9,3.7C233.8,93.7,233.5,93.7,233.2,93.7z"/>
		</g>
		<g>
			<path class="st5" d="M261.2,89.6c-2.2,0-4.3-1-5.7-2.4s-1.3-2.5-0.3-7.2c0.1-0.7,0.3-1.8,0.4-2.4c-1-1.3-4.1-3.8-5.5-5
				c-2.7-2.2-3.2-2.7-3.5-3.7c-1-2.8,0.4-5.6,1.6-7.8c0.4-0.9,1-1.9,1.2-2.4c0.1-0.9,0.3-2.4-0.9-2.9l-0.3-0.1
				c-2.7-1.3-2.7-1.3-4.3-0.4l-1.2,0.6l-1.3-0.6c-3.5-1.6-3.7-4.7-3.8-6.6v-0.4c-0.1-1,0-1.9,0.1-2.7c0-0.6,0.1-1.5,0.1-1.6
				c0,0-0.3,0-0.9,0c-0.1,0-0.3,0-0.6,0c-0.1,0-0.6,0.1-0.9,0.1c-1,0.3-2.5,0.7-4.1,0.3c-1.2-0.3-2.1-1.2-2.8-1.9
				c-0.3-0.3-0.4-0.4-0.7-0.6c-2.2-1.3-4.3-1.3-6.9-1.3c-1.3,0-2.8,0-4.4-0.1c-0.6,0-1.3-0.1-1.9-0.4l-1.2-0.4l-0.6-1.2
				c-0.1-0.3-0.4-0.7-0.7-1.2c-0.9-1.2-2.4-2.9-2.4-6.2c0-2.8,1.3-7.8,4.1-10c0.1-0.1,0.6-0.7,1-1.3C217.7,16,224.5,7.9,235,9
				c1.8,0.1,4.1-2.2,4.4-2.9c0,0,0.1-1.2,0.3-1.5c0.3-0.3,1.5-0.6,1.5-0.6c2.7-1,12.1,4.4,12.2,4.6c1,0.7,4.9,2.2,8.1,3.4
				c6.5,2.5,10.6,4.3,12.5,5.9l0,0c8,7.2,12.1,15.8,12.4,25.5c0.4,16.9-11.3,32.3-14.6,35.5c-0.6,0.6-1.5,2.2-2.2,3.5
				c-1.3,2.4-2.5,4.6-4.1,5.9C263.8,89.3,262.5,89.6,261.2,89.6z M260.4,83.5c0.4,0.1,0.9,0.3,1.2,0c0.7-0.6,1.8-2.5,2.5-4
				c1-1.9,2.1-3.7,3.2-4.9C270,72,280.6,58,280.2,43.4c-0.1-8.1-3.7-15.2-10.5-21.2l0,0c-1.2-1-6.9-3.2-10.8-4.7
				c-4.9-1.9-8-3.1-9.4-4.1c-0.7-0.4-4.1-2.1-6.3-2.9c-2.2,2.5-6.2,4.9-9.3,4.6c-7.1-0.7-12.2,5.2-14.9,8.4
				c-0.9,1.2-1.5,1.9-2.1,2.4c-0.7,0.6-1.9,3.5-1.8,5.3c0,1.2,0.4,1.6,1.2,2.5c0.1,0.3,0.4,0.6,0.6,0.9c1.2,0.1,2.4,0.1,3.7,0.1
				c2.9,0,6.3,0,10,2.1c0.6,0.3,1.2,0.9,1.6,1.3c0.1,0.1,0.4,0.3,0.6,0.4c0.1,0,0.6-0.1,0.7-0.3c0.6-0.1,1.3-0.4,2.2-0.4
				c1.2,0,4.6-0.3,6.5,2.5c1.5,2.1,1.2,4.3,1,5.9c0,0.6-0.1,1.2-0.1,1.5v0.6c0,0.3,0,0.6,0.1,0.9c2.8-0.9,4.6-0.1,7.4,1.3l0.3,0.1
				c3.2,1.6,4.9,5.2,4,9.4c-0.3,1.5-1,2.8-1.8,4.1c-0.4,0.7-1,2.1-1.3,2.7c0.4,0.4,1.2,1,1.8,1.5c5.2,4.4,7.1,6.3,7.7,8.3
				c0.1,0.9,0,1.6-0.6,4.9C260.7,81.9,260.6,82.8,260.4,83.5z M255.9,78.1L255.9,78.1L255.9,78.1z M213.6,20.9L213.6,20.9
				L213.6,20.9z"/>
		</g>
	</g>
	<path class="st5" d="M340.3,104.9c-12.5,3.5-28.7,8.3-46.1,13.1l-0.3-6c0-7.1-4.7-13.4-11.8-15.8l-17.4-6l-7.5-2.7V85
		c0,0-2.9,1-2.2,1l-2.9,4.1c0,1.3,0,5.6-8,5.6s-8-4.1-8-5.6l-5.2-2.9l-3.1,1l-3.1,1l-1.9,0.6c0,0-40.7,15.2-46.9,16.5
		c-5.2,0.7-19-6.9-28.6-14.1c-12.5-9.3-15.2-11.1-17.7-10.5c-3.1,0.7-4,3.5-4.7,5.6c-0.3,0.7-0.4,1.5-0.9,2.2
		c-0.6,1-1.6,2.5-2.7,4.1c-4.1,6-6.8,10.3-5.9,13.8c0.3,1.3,1,2.4,2.2,3.1c5.6,4.7,11.8,8.5,22,16.6c5.9,4.7,10.5,8.4,11.3,9.1
		c0.1,0.1,10.8,8.4,15.8,8.5c0,0,0,0,0.1,0c3.2,0,9.3-1.3,16.2-2.8c6.5-1.5,17.2-3.7,20.5-3.4c0.6,1.2,0.4,1.5,0.3,3.2l-0.1,1.2h0.1
		c-5.6,1.5-9.6,2.5-9.6,2.5c-3.7,1-7.2,2.1-10.9,3.1l-81.9,25.3c-12.8,4.3-25.6,8.7-38.3,13.4l0.1,0.6c12.7-2.8,25.5-6,38.2-9.3
		l81.9-24c9.4-2.9,18.9-5.9,28.3-8.8c42.1-13,105.8-32.7,147.2-46L340.3,104.9z M237.9,133.6c-5.5,1.6-17.8,4.9-28,7.7
		c0.1-2.1,0-3.2-1.3-6c-1.9-4.1-8.4-3.1-26.7,0.9c-6,1.3-12.4,2.7-14.9,2.7l0,0c-1.9-0.1-9.1-4.7-12.1-7.1c-1-0.7-5.5-4.3-11.5-9.1
		c-10.2-8.1-16.5-12.1-22-16.6l0,0c0.3-1.9,3.4-6.5,5-8.8c1.2-1.6,2.2-3.2,2.9-4.6c0.6-1,0.9-2.2,1.3-3.1c0.1-0.4,0.3-0.9,0.4-1.3
		c2.4,1.3,8.1,5.6,12.8,9.1c16.8,12.5,25.9,16.4,33.2,15.3c6.6-1.3,47.9-17.1,47.9-17.1l6.5,15.2c0.4,1.2,1.9,1.5,2.9,0.7l1.6-1.3
		l1.9,5.6L237.9,133.6L237.9,133.6z M234.6,104.1l-4.7-10.9l0.4-0.1c0.7,2.8,2.9,6.2,8.8,7.4L234.6,104.1z M245.8,131.4
		c-0.9,0.3-1.8,0.4-2.7,0.7v-14.7h2.7V131.4z M246.4,112.3h-4l-2.1-6l3.7-2.9l3.8,2.9L246.4,112.3z M257,94.9l-3.7,9.3l-4.6-3.7
		C253.5,99.6,256,97.2,257,94.9z M251,129.9v-14.7l1.3-5.3l1.8,1.3c0.9,0.6,2.1,0.3,2.4-0.6l6.3-15.5l17.5,6c5,1.8,8.3,6,8.3,10.9
		l0.3,7.4C276.3,123,263.2,126.4,251,129.9z"/>
	<g>
		<path class="st5" d="M121.9,100.3c-0.4,0-1-0.1-1.5-0.4c-1.3-0.7-5-3.1-9-5.7c-1-0.7-1.9-1.3-2.4-1.5c-2.8-1.9-6.8-4.1-9.7-5.5
			c-3.5-1.6-5.6-4-6.8-7.5c-0.1-0.3-0.1-0.4-0.1-0.4c-0.7-0.7-1.2-1.5-1.5-2.8c-0.1-0.7-0.7-1.6-1.2-2.1c0,0-0.1,0-0.1-0.1
			c-0.4-0.1-1.3-0.6-1.9-1.3c-2.4-2.4-1.9-5.7-0.6-7.8c0.4-0.7,1-1.2,1.5-1.6c0-0.4,0-0.9,0.1-1.5c0.4-2.1,1.8-4,3.5-5.2
			c2.7-1.9,5.9-2.2,8.7-2.7l0.7-0.1c3.7-0.4,6.8,1.2,9.3,2.8c0.4,0.3,1,0.6,1.8,0.9c1.9,0.9,4.1,2.1,5.5,3.8
			c0.9,1.2,1.2,2.7,1.5,3.7c0,0.3,0.1,0.6,0.3,0.9c1.5,5,6.6,14,10.6,18.3c1,1.2,1,3.1-0.1,4.1c-1.2,1-3.1,1-4.1-0.1
			c-4.6-5-10.2-14.7-11.9-20.6c-0.1-0.4-0.3-0.9-0.3-1.3c-0.1-0.4-0.3-1.3-0.4-1.6c-0.4-0.6-2.1-1.5-3.2-2.1
			c-0.7-0.4-1.5-0.7-2.2-1.2c-2.2-1.3-3.8-2.2-5.5-1.9l-0.9,0.1c-2.2,0.3-4.4,0.6-6,1.6c-0.6,0.4-1,1-1.2,1.6v0.1
			c0,0.6,0.1,1.5-0.4,2.5c-0.4,1-1.3,1.6-1.8,2.1c-0.1,0-0.1,0.1-0.3,0.1c0,0.1-0.1,0.3-0.1,0.4c0,0,0,0,0.1,0c0.4,0.1,1,0.4,1.8,1
			c1.5,1.5,2.5,3.5,2.9,5c0,0.1,0.1,0.3,0.1,0.4c0.4,0.4,0.9,1,1.5,2.5c0.6,1.9,1.6,3.1,3.7,4c3.2,1.5,7.4,3.8,10.5,5.9
			c0.4,0.3,1.3,0.9,2.4,1.6c2.8,1.8,7.4,4.9,8.5,5.6c1.5,0.7,1.9,2.7,1.2,4C124,99.7,123,100.3,121.9,100.3z M92,68.5L92,68.5
			L92,68.5z"/>
	</g>
	<g>
		<path class="st5" d="M110.9,93.1c-1,0-2.1-0.6-2.7-1.6c-1-2.1-3.1-5.6-3.7-6.6c-0.7-1.2-1-2.4-1.3-3.2c-0.1-0.3-0.1-0.6-0.3-1
			c-0.9-2.7-3.4-5.6-5.3-6.6c-2.7-1.3-4.3-4.6-3.8-7.4c0.4-2.5,2.4-4.3,5.2-4.6c3.4-0.3,7.4,2.2,9,3.8l0.1,0.1c1,1,3.5,3.4,4.7,4.1
			c1.5,0.7,1.9,2.5,1.2,4c-0.7,1.5-2.5,1.9-4,1.2c-1.8-1-4-3.1-6-5l-0.1-0.1c-1.2-1.2-3.4-2.2-4.3-2.2c0.1,0.3,0.3,0.7,0.4,0.7
			c4,1.9,7.1,6.5,8.3,10c0.1,0.4,0.3,1,0.4,1.5c0.1,0.6,0.3,1.2,0.4,1.5c1,1.5,3.7,6.5,4,7.1c0.7,1.5,0.1,3.2-1.2,4
			C111.8,93,111.3,93.1,110.9,93.1z"/>
	</g>
	<path class="st5" d="M147.6,60.1c0.1-1.9-1.6-3.4-3.5-2.9c0,0-42.1,8.3-60.6,13c-6.2,1.6-9.6,4.6-9.6,4.6l0.1,0.7
		c0,0,4.3,0.3,10.5-0.7c4.7-0.7,9.4-1.7,15-2.7c1-0.1-0.3-5.7,0.7-6c1-0.1,7.4,3.8,8.5,3.7c14.6-2.9,36.4-7.1,36.4-7.1
		C146.5,62.3,147.4,61.3,147.6,60.1L147.6,60.1z"/>
</g>
<path class="st6" d="M183.3,154.5c9.4-2.9,18.9-5.9,28.3-8.8c42.1-13,105.8-32.8,147.2-46.1l0,0l-18.5,5.6
	c-12.5,3.5-28.7,7.9-46.1,12.8l-5.3,1.4c-12.4,3.6-93.5,25.7-105.6,29.1l-81.9,25.3c-12.8,4.3-25.5,8.7-38.2,13.4l0.1,0.6
	c12.7-2.8,25.4-6,38.1-9.3L183.3,154.5z"/>
</svg>
