<?xml version="1.0" encoding="utf-8"?>
<!-- Generator: Adobe Illustrator 27.7.0, SVG Export Plug-In . SVG Version: 6.00 Build 0)  -->
<svg version="1.1" id="Layer_1" xmlns="http://www.w3.org/2000/svg" xmlns:xlink="http://www.w3.org/1999/xlink" x="0px" y="0px"
	 width="124px" height="124.1px" viewBox="0 0 124 124.1" style="enable-background:new 0 0 124 124.1;" xml:space="preserve">
<style type="text/css">
	.st0{fill:#FFFFFF;}
	.st1{fill:#2A3144;}
	.st2{fill:#0B3889;}
</style>
<g>
	<g>
		<path class="st0" d="M7.3-154.1h109.4v109.4H7.3V-154.1z"/>
	</g>
	<g>
		<circle class="st1" cx="44.4" cy="-124.5" r="15.7"/>
		<polygon class="st1" points="80.6,-117 80.6,-98.9 98.7,-98.9 		"/>
		<g>
			<path class="st1" d="M102.3-73.4c0-8.7-6.2-15.8-14.8-15.8c-2.5,0-6.9,0-6.9,0v31.7c0,0,4.4,0,6.9,0
				C96.1-57.5,102.3-64.6,102.3-73.4z"/>
		</g>
		<path class="st1" d="M50.2-98.9h19.6v-18.9C67.3-108.4,59.7-101,50.2-98.9z"/>
		<g>
			<g>
				<path class="st1" d="M69.8-151H10.4v0.2l40.2,0.8c9.3,2.3,16.6,9.5,19.1,18.7v-12v-6.7v-1H69.8z"/>
				<polygon class="st1" points="80.6,-151 80.6,-150 80.6,-143.3 80.6,-131.9 98.7,-150 98.7,-151 				"/>
			</g>
			<path class="st1" d="M103.3-140.6L87.7-125l24.9,26.1l0,0h-25c13.8,0,24.9,11.3,25,25.3v0.4c-0.1,14-11.3,25.3-25,25.3h25h1
				v-92.8h-10.3V-140.6z"/>
		</g>
	</g>
</g>
<g>
	<g>
		<circle class="st2" cx="44.4" cy="36.9" r="15.7"/>
		<polygon class="st2" points="80.6,44.5 80.6,62.5 98.7,62.5 		"/>
		<g>
			<path class="st2" d="M102.3,88.1c0-8.7-6.2-15.8-14.8-15.8c-2.5,0-6.9,0-6.9,0V104c0,0,4.4,0,6.9,0
				C96.1,103.9,102.3,96.8,102.3,88.1z"/>
		</g>
		<path class="st2" d="M50.2,62.5h19.6V43.7C67.3,53.1,59.7,60.4,50.2,62.5z"/>
		<g>
			<g>
				<path class="st2" d="M69.8,10.5H10.4v0.2l40.2,0.8C60,13.8,67.3,21,69.8,30.2v-12v-6.7V10.5z"/>
				<polygon class="st2" points="80.6,10.5 80.6,11.5 80.6,18.2 80.6,29.5 98.7,11.5 98.7,10.5 				"/>
			</g>
			<path class="st2" d="M103.3,20.8L87.7,36.5l24.9,26.1l0,0h-25c13.8,0,24.9,11.3,25,25.3v0.4c-0.1,14-11.3,25.3-25,25.3h25h1V20.8
				H103.3z"/>
		</g>
	</g>
</g>
<g>
	<polygon class="st1" points="-189.9,-148 -297.2,-145.7 -163.6,-145.7 	"/>
	<g>
		<circle class="st1" cx="-283" cy="-120.8" r="14.3"/>
		<polygon class="st1" points="-250.1,-127.6 -250.1,-144 -233.7,-144 		"/>
		<polygon class="st1" points="-221,-97.6 -221,-135.5 -229.4,-135.5 -243.6,-121.2 		"/>
		<g>
			<path class="st1" d="M-259.8-127v-17h-17.3C-268.7-141.9-262-135.4-259.8-127z"/>
			<path class="st1" d="M-277.6-97.6h17.8v-17.1C-262.1-106.2-269-99.6-277.6-97.6z"/>
		</g>
		<g>
			<path class="st1" d="M-181.3-126.6h0.5c12.7,0,16.2,7,17.1,11.6v-16.6h-0.1h-11.7c0-1.3-1.4-3.8-5.8-3.8c-4.5,0-5.6,2.6-5.6,4.3
				C-186.9-129-185.7-126.6-181.3-126.6z"/>
			<path class="st1" d="M-230.4-74.4c0-7.9-5.6-14.4-13.4-14.4c-2.3,0-6.3,0-6.3,0V-60c0,0,4,0,6.3,0C-236-60-230.4-66.4-230.4-74.4
				z"/>
			<path class="st1" d="M-63-51.2v-46.4h-9.9v28.5l-15.7-28.5h-9.9v20.9c-1.2-11.8-11.1-21-23.2-21s-22,9.2-23.2,20.9v-20.8h-9.9
				v11.4c0,0,0-11.4-17.3-11.4c-4.8,0-8.2,1-10.7,2.5c-1.4-1-3.1-1.9-5.3-2.5l0,0c-10.6-2.8-10.2-11.7-10.2-11.7v-1.5h11.7
				c0,1.3,1.4,4.5,5.8,4.5c4.5,0,5.6-3.3,5.6-4.9c0-2.1-1.1-4.5-5.6-4.5h-0.5c-18.8,0-17.4-15.5-17.4-15.5s-0.1-1.9,0.8-4.3h-13.3
				v37.9h-9.2h-0.6h-12.9L-250-114v16.4h6.4c12.5,0,22.6,10.3,22.7,23v0.4c-0.1,12.7-10.2,23-22.7,23h22.7h9.8l0,0h35.4h4.4
				c17.3,0,16.8-13.9,16.8-13.9s0-0.2,0-0.6v14.5h9.9V-72c1.2,11.8,11.1,20.9,23.2,20.9s22-9.2,23.2-20.9v20.8h9.9v-28.5l15.7,28.5
				l0,0l0,0L-63-51.2L-63-51.2L-63-51.2z M-171.4-61h-4.4h-35.4v-8.4h19.5v-9.9h-19.5v-8.4h22.9c-0.5,1.9-0.5,3.3-0.5,3.3
				s-1.3,15,16.8,15h0.5c4.3,0,5.4,2.3,5.4,4.3C-166-63.5-167.1-61-171.4-61z M-154.6-65.7c0-2.9-1-14.3-16.8-14.3h-0.5
				c-4.3,0-5.4-2.3-5.4-4.3c0-1.6,1-4.1,5.4-4.1c4.2,0,5.6,2.4,5.6,3.7h11.8v19H-154.6z M-98.4-73h-19.4l-9,9.7h14.5
				c-2.5,2.1-5.8,3.4-9.3,3.4c-8,0-14.5-6.5-14.5-14.5s6.5-14.5,14.5-14.5c7.9,0,14.3,6.3,14.5,14.2h8.7C-98.4-74.7-98.4-73-98.4-73
				z"/>
		</g>
	</g>
</g>
</svg>
