<?xml version="1.0" encoding="utf-8"?>
<!-- Generator: Adobe Illustrator 27.7.0, SVG Export Plug-In . SVG Version: 6.00 Build 0)  -->
<svg version="1.1" id="Layer_1" xmlns="http://www.w3.org/2000/svg" xmlns:xlink="http://www.w3.org/1999/xlink" x="0px" y="0px"
	 width="100px" height="100px" viewBox="0 0 100 100" style="enable-background:new 0 0 100 100;" xml:space="preserve">
<style type="text/css">
	.st0{fill:#9CBCBB;}
</style>
<path class="st0" d="M73.4,0H0v73.4C0,88.1,11.9,100,26.6,100h46.7c14.7,0,26.6-11.9,26.6-26.6V26.6C100,11.9,88.1,0,73.4,0z
	 M53.3,30.7v38.6c0,0,0,0,0,0.1c-0.1,9.6-7.9,17.4-17.6,17.4s-17.6-7.9-17.6-17.6S26,51.7,35.7,51.7c1.9,0,3.7,0.3,5.4,0.9v12.2
	c-1.3-1.5-3.2-2.5-5.4-2.5c-3.9,0-7.1,3.2-7.1,7.1s3.2,7.1,7.1,7.1s7.1-3.2,7.1-7.1V53.2v-6.4c-2.1,0.9-4.3,1.4-6.7,1.5
	c-9.8,0.2-17.9-8.2-17.9-18V18.4c0-2.9,2.4-5.3,5.3-5.3s5.3,2.4,5.3,5.3v12c0,3.9,3,7.2,6.8,7.4c4,0.1,7.3-3.1,7.3-7.1V18.4
	c0-2.9,2.4-5.3,5.3-5.3c2.9,0,5.3,2.4,5.3,5.3v12.3H53.3z M84.1,53.9L71.8,66.2c-2,2-5.4,2-7.4,0s-2-5.4,0-7.4l8.6-8.6l-8.6-8.6
	c-2-2-2-5.4,0-7.4s5.4-2,7.4,0l12.3,12.3c1,1,1.5,2.4,1.5,3.7C85.6,51.5,85.1,52.8,84.1,53.9z"/>
</svg>
